<svg width="212" height="84" viewBox="0 0 212 84" fill="none" xmlns="http://www.w3.org/2000/svg">
<path d="M29.3398 44.6172V52H9.21484V44.6172H29.3398ZM12.6328 12.1875V52H3.03516V12.1875H12.6328Z" fill="white"/>
<path d="M63.8398 44.6172V52H35.0195V44.6172H63.8398ZM63.6484 17.1094L39.7773 52H32.832V46.9414L56.9766 12.1875H63.6484V17.1094ZM60.5586 12.1875V19.5977H32.6953V12.1875H60.5586Z" fill="white"/>
<path d="M70.032 20.624C70.032 18.992 70.4 17.528 71.136 16.232C71.872 14.92 72.872 13.896 74.136 13.16C75.416 12.424 76.832 12.056 78.384 12.056C80.208 12.056 81.8 12.496 83.16 13.376C84.52 14.256 85.512 15.504 86.136 17.12H83.52C83.056 16.112 82.384 15.336 81.504 14.792C80.64 14.248 79.6 13.976 78.384 13.976C77.216 13.976 76.168 14.248 75.24 14.792C74.312 15.336 73.584 16.112 73.056 17.12C72.528 18.112 72.264 19.28 72.264 20.624C72.264 21.952 72.528 23.12 73.056 24.128C73.584 25.12 74.312 25.888 75.24 26.432C76.168 26.976 77.216 27.248 78.384 27.248C79.6 27.248 80.64 26.984 81.504 26.456C82.384 25.912 83.056 25.136 83.52 24.128H86.136C85.512 25.728 84.52 26.968 83.16 27.848C81.8 28.712 80.208 29.144 78.384 29.144C76.832 29.144 75.416 28.784 74.136 28.064C72.872 27.328 71.872 26.312 71.136 25.016C70.4 23.72 70.032 22.256 70.032 20.624ZM95.9151 15.608C96.9071 15.608 97.8031 15.824 98.6031 16.256C99.4031 16.672 100.027 17.304 100.475 18.152C100.939 19 101.171 20.032 101.171 21.248V29H99.0111V21.56C99.0111 20.248 98.6831 19.248 98.0271 18.56C97.3711 17.856 96.4751 17.504 95.3391 17.504C94.1871 17.504 93.2671 17.864 92.5791 18.584C91.9071 19.304 91.5711 20.352 91.5711 21.728V29H89.3871V11.24H91.5711V17.72C92.0031 17.048 92.5951 16.528 93.3471 16.16C94.1151 15.792 94.9711 15.608 95.9151 15.608ZM116.403 15.848V29H114.219V27.056C113.803 27.728 113.219 28.256 112.467 28.64C111.731 29.008 110.915 29.192 110.019 29.192C108.995 29.192 108.075 28.984 107.259 28.568C106.443 28.136 105.795 27.496 105.315 26.648C104.851 25.8 104.619 24.768 104.619 23.552V15.848H106.779V23.264C106.779 24.56 107.107 25.56 107.763 26.264C108.419 26.952 109.315 27.296 110.451 27.296C111.619 27.296 112.539 26.936 113.211 26.216C113.883 25.496 114.219 24.448 114.219 23.072V15.848H116.403ZM122.274 17.984C122.658 17.232 123.202 16.648 123.906 16.232C124.626 15.816 125.498 15.608 126.522 15.608V17.864H125.946C123.498 17.864 122.274 19.192 122.274 21.848V29H120.09V15.848H122.274V17.984ZM131.227 17.984C131.611 17.232 132.155 16.648 132.859 16.232C133.579 15.816 134.451 15.608 135.475 15.608V17.864H134.899C132.451 17.864 131.227 19.192 131.227 21.848V29H129.043V15.848H131.227V17.984ZM137.18 22.376C137.18 21.032 137.452 19.856 137.996 18.848C138.54 17.824 139.284 17.032 140.228 16.472C141.188 15.912 142.252 15.632 143.42 15.632C144.572 15.632 145.572 15.88 146.42 16.376C147.268 16.872 147.9 17.496 148.316 18.248V15.848H150.524V29H148.316V26.552C147.884 27.32 147.236 27.96 146.372 28.472C145.524 28.968 144.532 29.216 143.396 29.216C142.228 29.216 141.172 28.928 140.228 28.352C139.284 27.776 138.54 26.968 137.996 25.928C137.452 24.888 137.18 23.704 137.18 22.376ZM148.316 22.4C148.316 21.408 148.116 20.544 147.716 19.808C147.316 19.072 146.772 18.512 146.084 18.128C145.412 17.728 144.668 17.528 143.852 17.528C143.036 17.528 142.292 17.72 141.62 18.104C140.948 18.488 140.412 19.048 140.012 19.784C139.612 20.52 139.412 21.384 139.412 22.376C139.412 23.384 139.612 24.264 140.012 25.016C140.412 25.752 140.948 26.32 141.62 26.72C142.292 27.104 143.036 27.296 143.852 27.296C144.668 27.296 145.412 27.104 146.084 26.72C146.772 26.32 147.316 25.752 147.716 25.016C148.116 24.264 148.316 23.392 148.316 22.4ZM158.871 29.216C157.863 29.216 156.959 29.048 156.159 28.712C155.359 28.36 154.727 27.88 154.263 27.272C153.799 26.648 153.543 25.936 153.495 25.136H155.751C155.815 25.792 156.119 26.328 156.663 26.744C157.223 27.16 157.951 27.368 158.847 27.368C159.679 27.368 160.335 27.184 160.815 26.816C161.295 26.448 161.535 25.984 161.535 25.424C161.535 24.848 161.279 24.424 160.767 24.152C160.255 23.864 159.463 23.584 158.391 23.312C157.415 23.056 156.615 22.8 155.991 22.544C155.383 22.272 154.855 21.88 154.407 21.368C153.975 20.84 153.759 20.152 153.759 19.304C153.759 18.632 153.959 18.016 154.359 17.456C154.759 16.896 155.327 16.456 156.063 16.136C156.799 15.8 157.639 15.632 158.583 15.632C160.039 15.632 161.215 16 162.111 16.736C163.007 17.472 163.487 18.48 163.551 19.76H161.367C161.319 19.072 161.039 18.52 160.527 18.104C160.031 17.688 159.359 17.48 158.511 17.48C157.727 17.48 157.103 17.648 156.639 17.984C156.175 18.32 155.943 18.76 155.943 19.304C155.943 19.736 156.079 20.096 156.351 20.384C156.639 20.656 156.991 20.88 157.407 21.056C157.839 21.216 158.431 21.4 159.183 21.608C160.127 21.864 160.895 22.12 161.487 22.376C162.079 22.616 162.583 22.984 162.999 23.48C163.431 23.976 163.655 24.624 163.671 25.424C163.671 26.144 163.471 26.792 163.071 27.368C162.671 27.944 162.103 28.4 161.367 28.736C160.647 29.056 159.815 29.216 158.871 29.216ZM165.938 22.4C165.938 21.04 166.21 19.856 166.754 18.848C167.298 17.824 168.05 17.032 169.01 16.472C169.986 15.912 171.098 15.632 172.346 15.632C173.962 15.632 175.29 16.024 176.33 16.808C177.386 17.592 178.082 18.68 178.418 20.072H176.066C175.842 19.272 175.402 18.64 174.746 18.176C174.106 17.712 173.306 17.48 172.346 17.48C171.098 17.48 170.09 17.912 169.322 18.776C168.554 19.624 168.17 20.832 168.17 22.4C168.17 23.984 168.554 25.208 169.322 26.072C170.09 26.936 171.098 27.368 172.346 27.368C173.306 27.368 174.106 27.144 174.746 26.696C175.386 26.248 175.826 25.608 176.066 24.776H178.418C178.066 26.12 177.362 27.2 176.306 28.016C175.25 28.816 173.93 29.216 172.346 29.216C171.098 29.216 169.986 28.936 169.01 28.376C168.05 27.816 167.298 27.024 166.754 26C166.21 24.976 165.938 23.776 165.938 22.4ZM187.068 29.216C185.836 29.216 184.716 28.936 183.708 28.376C182.716 27.816 181.932 27.024 181.356 26C180.796 24.96 180.516 23.76 180.516 22.4C180.516 21.056 180.804 19.872 181.38 18.848C181.972 17.808 182.772 17.016 183.78 16.472C184.788 15.912 185.916 15.632 187.164 15.632C188.412 15.632 189.54 15.912 190.548 16.472C191.556 17.016 192.348 17.8 192.924 18.824C193.516 19.848 193.812 21.04 193.812 22.4C193.812 23.76 193.508 24.96 192.9 26C192.308 27.024 191.5 27.816 190.476 28.376C189.452 28.936 188.316 29.216 187.068 29.216ZM187.068 27.296C187.852 27.296 188.588 27.112 189.276 26.744C189.964 26.376 190.516 25.824 190.932 25.088C191.364 24.352 191.58 23.456 191.58 22.4C191.58 21.344 191.372 20.448 190.956 19.712C190.54 18.976 189.996 18.432 189.324 18.08C188.652 17.712 187.924 17.528 187.14 17.528C186.34 17.528 185.604 17.712 184.932 18.08C184.276 18.432 183.748 18.976 183.348 19.712C182.948 20.448 182.748 21.344 182.748 22.4C182.748 23.472 182.94 24.376 183.324 25.112C183.724 25.848 184.252 26.4 184.908 26.768C185.564 27.12 186.284 27.296 187.068 27.296Z" fill="white"/>
<path d="M101.848 44.92C101.848 45.336 101.824 45.776 101.776 46.24H91.264C91.344 47.536 91.784 48.552 92.584 49.288C93.4 50.008 94.384 50.368 95.536 50.368C96.48 50.368 97.264 50.152 97.888 49.72C98.528 49.272 98.976 48.68 99.232 47.944H101.584C101.232 49.208 100.528 50.24 99.472 51.04C98.416 51.824 97.104 52.216 95.536 52.216C94.288 52.216 93.168 51.936 92.176 51.376C91.2 50.816 90.432 50.024 89.872 49C89.312 47.96 89.032 46.76 89.032 45.4C89.032 44.04 89.304 42.848 89.848 41.824C90.392 40.8 91.152 40.016 92.128 39.472C93.12 38.912 94.256 38.632 95.536 38.632C96.784 38.632 97.888 38.904 98.848 39.448C99.808 39.992 100.544 40.744 101.056 41.704C101.584 42.648 101.848 43.72 101.848 44.92ZM99.592 44.464C99.592 43.632 99.408 42.92 99.04 42.328C98.672 41.72 98.168 41.264 97.528 40.96C96.904 40.64 96.208 40.48 95.44 40.48C94.336 40.48 93.392 40.832 92.608 41.536C91.84 42.24 91.4 43.216 91.288 44.464H99.592ZM111.907 49.984L115.987 38.848H118.315L113.155 52H110.611L105.451 38.848H107.803L111.907 49.984ZM134.744 44.92C134.744 45.336 134.72 45.776 134.672 46.24H124.16C124.24 47.536 124.68 48.552 125.48 49.288C126.296 50.008 127.28 50.368 128.432 50.368C129.376 50.368 130.16 50.152 130.784 49.72C131.424 49.272 131.872 48.68 132.128 47.944H134.48C134.128 49.208 133.424 50.24 132.368 51.04C131.312 51.824 130 52.216 128.432 52.216C127.184 52.216 126.064 51.936 125.072 51.376C124.096 50.816 123.328 50.024 122.768 49C122.208 47.96 121.928 46.76 121.928 45.4C121.928 44.04 122.2 42.848 122.744 41.824C123.288 40.8 124.048 40.016 125.024 39.472C126.016 38.912 127.152 38.632 128.432 38.632C129.68 38.632 130.784 38.904 131.744 39.448C132.704 39.992 133.44 40.744 133.952 41.704C134.48 42.648 134.744 43.72 134.744 44.92ZM132.488 44.464C132.488 43.632 132.304 42.92 131.936 42.328C131.568 41.72 131.064 41.264 130.424 40.96C129.8 40.64 129.104 40.48 128.336 40.48C127.232 40.48 126.288 40.832 125.504 41.536C124.736 42.24 124.296 43.216 124.184 44.464H132.488ZM146.315 38.608C147.915 38.608 149.211 39.096 150.203 40.072C151.195 41.032 151.691 42.424 151.691 44.248V52H149.531V44.56C149.531 43.248 149.203 42.248 148.547 41.56C147.891 40.856 146.995 40.504 145.859 40.504C144.707 40.504 143.787 40.864 143.099 41.584C142.427 42.304 142.091 43.352 142.091 44.728V52H139.907V38.848H142.091V40.72C142.523 40.048 143.107 39.528 143.843 39.16C144.595 38.792 145.419 38.608 146.315 38.608ZM160.202 40.648V48.4C160.202 49.04 160.338 49.496 160.61 49.768C160.882 50.024 161.354 50.152 162.026 50.152H163.634V52H161.666C160.45 52 159.538 51.72 158.93 51.16C158.322 50.6 158.018 49.68 158.018 48.4V40.648H156.314V38.848H158.018V35.536H160.202V38.848H163.634V40.648H160.202ZM174.297 52.216C173.065 52.216 171.945 51.936 170.937 51.376C169.945 50.816 169.161 50.024 168.585 49C168.025 47.96 167.745 46.76 167.745 45.4C167.745 44.056 168.033 42.872 168.609 41.848C169.201 40.808 170.001 40.016 171.009 39.472C172.017 38.912 173.145 38.632 174.393 38.632C175.641 38.632 176.769 38.912 177.777 39.472C178.785 40.016 179.577 40.8 180.153 41.824C180.745 42.848 181.041 44.04 181.041 45.4C181.041 46.76 180.737 47.96 180.129 49C179.537 50.024 178.729 50.816 177.705 51.376C176.681 51.936 175.545 52.216 174.297 52.216ZM174.297 50.296C175.081 50.296 175.817 50.112 176.505 49.744C177.193 49.376 177.745 48.824 178.161 48.088C178.593 47.352 178.809 46.456 178.809 45.4C178.809 44.344 178.601 43.448 178.185 42.712C177.769 41.976 177.225 41.432 176.553 41.08C175.881 40.712 175.153 40.528 174.369 40.528C173.569 40.528 172.833 40.712 172.161 41.08C171.505 41.432 170.977 41.976 170.577 42.712C170.177 43.448 169.977 44.344 169.977 45.4C169.977 46.472 170.169 47.376 170.553 48.112C170.953 48.848 171.481 49.4 172.137 49.768C172.793 50.12 173.513 50.296 174.297 50.296ZM190.848 52.216C189.84 52.216 188.936 52.048 188.136 51.712C187.336 51.36 186.704 50.88 186.24 50.272C185.776 49.648 185.52 48.936 185.472 48.136H187.728C187.792 48.792 188.096 49.328 188.64 49.744C189.2 50.16 189.928 50.368 190.824 50.368C191.656 50.368 192.312 50.184 192.792 49.816C193.272 49.448 193.512 48.984 193.512 48.424C193.512 47.848 193.256 47.424 192.744 47.152C192.232 46.864 191.44 46.584 190.368 46.312C189.392 46.056 188.592 45.8 187.968 45.544C187.36 45.272 186.832 44.88 186.384 44.368C185.952 43.84 185.736 43.152 185.736 42.304C185.736 41.632 185.936 41.016 186.336 40.456C186.736 39.896 187.304 39.456 188.04 39.136C188.776 38.8 189.616 38.632 190.56 38.632C192.016 38.632 193.192 39 194.088 39.736C194.984 40.472 195.464 41.48 195.528 42.76H193.344C193.296 42.072 193.016 41.52 192.504 41.104C192.008 40.688 191.336 40.48 190.488 40.48C189.704 40.48 189.08 40.648 188.616 40.984C188.152 41.32 187.92 41.76 187.92 42.304C187.92 42.736 188.056 43.096 188.328 43.384C188.616 43.656 188.968 43.88 189.384 44.056C189.816 44.216 190.408 44.4 191.16 44.608C192.104 44.864 192.872 45.12 193.464 45.376C194.056 45.616 194.56 45.984 194.976 46.48C195.408 46.976 195.632 47.624 195.648 48.424C195.648 49.144 195.448 49.792 195.048 50.368C194.648 50.944 194.08 51.4 193.344 51.736C192.624 52.056 191.792 52.216 190.848 52.216Z" fill="white"/>
<path d="M80.376 52L78.816 50.488C77.264 51.672 75.408 52.264 73.248 52.264C71.952 52.264 70.824 52.056 69.864 51.64C68.904 51.208 68.16 50.608 67.632 49.84C67.12 49.056 66.864 48.144 66.864 47.104C66.864 46.048 67.144 45.096 67.704 44.248C68.28 43.384 69.136 42.68 70.272 42.136C69.856 41.624 69.56 41.136 69.384 40.672C69.208 40.192 69.12 39.672 69.12 39.112C69.12 38.312 69.328 37.584 69.744 36.928C70.16 36.272 70.76 35.76 71.544 35.392C72.344 35.008 73.288 34.816 74.376 34.816C75.48 34.816 76.416 35.016 77.184 35.416C77.952 35.816 78.528 36.352 78.912 37.024C79.296 37.696 79.472 38.432 79.44 39.232H75.576C75.592 38.8 75.48 38.472 75.24 38.248C75.016 38.008 74.712 37.888 74.328 37.888C73.944 37.888 73.624 38 73.368 38.224C73.112 38.448 72.984 38.736 72.984 39.088C72.984 39.424 73.088 39.776 73.296 40.144C73.52 40.512 73.864 40.936 74.328 41.416L78.432 45.424C78.464 45.344 78.504 45.248 78.552 45.136C78.616 45.024 78.68 44.896 78.744 44.752L79.632 43.24H83.736L82.584 45.328C82.152 46.272 81.656 47.168 81.096 48.016L85.152 52H80.376ZM73.44 48.952C74.512 48.952 75.464 48.648 76.296 48.04L72.552 44.416C71.4 45.008 70.824 45.808 70.824 46.816C70.824 47.424 71.056 47.936 71.52 48.352C72 48.752 72.64 48.952 73.44 48.952Z" fill="white"/>
</svg>

